<mxfile host="www.draw.io" modified="2020-01-06T05:58:51.566Z" agent="Mozilla/5.0 (Macintosh; Intel Mac OS X 10_14_0) AppleWebKit/537.36 (KHTML, like Gecko) Chrome/79.0.3945.88 Safari/537.36" etag="AJWdcAj3GgnIk7n44hds" version="12.4.8" type="github">
  <diagram id="0Jvgv-fAhZUzEOWTg1sC" name="Page-1">
    <mxGraphModel dx="1186" dy="741" grid="1" gridSize="10" guides="1" tooltips="1" connect="1" arrows="1" fold="1" page="1" pageScale="1" pageWidth="827" pageHeight="1169" math="0" shadow="0">
      <root>
        <mxCell id="0"/>
        <mxCell id="1" parent="0"/>
        <mxCell id="T2nWJuuo7SkY1st2Bivo-1" value="Abstarction" style="swimlane;fontStyle=1;align=center;verticalAlign=top;childLayout=stackLayout;horizontal=1;startSize=26;horizontalStack=0;resizeParent=1;resizeParentMax=0;resizeLast=0;collapsible=1;marginBottom=0;fillColor=#F08E81;fontColor=#FFFFFF;" vertex="1" parent="1">
          <mxGeometry x="120" y="120" width="160" height="52" as="geometry"/>
        </mxCell>
        <mxCell id="T2nWJuuo7SkY1st2Bivo-4" value="+ method()" style="text;strokeColor=none;fillColor=#F08E81;align=left;verticalAlign=top;spacingLeft=4;spacingRight=4;overflow=hidden;rotatable=0;points=[[0,0.5],[1,0.5]];portConstraint=eastwest;fontColor=#FFFFFF;" vertex="1" parent="T2nWJuuo7SkY1st2Bivo-1">
          <mxGeometry y="26" width="160" height="26" as="geometry"/>
        </mxCell>
        <mxCell id="T2nWJuuo7SkY1st2Bivo-5" value="RefinedAbstarction" style="swimlane;fontStyle=1;align=center;verticalAlign=top;childLayout=stackLayout;horizontal=1;startSize=26;horizontalStack=0;resizeParent=1;resizeParentMax=0;resizeLast=0;collapsible=1;marginBottom=0;fillColor=#F08E81;fontColor=#FFFFFF;" vertex="1" parent="1">
          <mxGeometry x="120" y="320" width="160" height="52" as="geometry"/>
        </mxCell>
        <mxCell id="T2nWJuuo7SkY1st2Bivo-8" value="+ method()" style="text;strokeColor=none;fillColor=#F08E81;align=left;verticalAlign=top;spacingLeft=4;spacingRight=4;overflow=hidden;rotatable=0;points=[[0,0.5],[1,0.5]];portConstraint=eastwest;fontColor=#FFFFFF;" vertex="1" parent="T2nWJuuo7SkY1st2Bivo-5">
          <mxGeometry y="26" width="160" height="26" as="geometry"/>
        </mxCell>
        <mxCell id="T2nWJuuo7SkY1st2Bivo-9" value="Implementor" style="swimlane;fontStyle=1;align=center;verticalAlign=top;childLayout=stackLayout;horizontal=1;startSize=26;horizontalStack=0;resizeParent=1;resizeParentMax=0;resizeLast=0;collapsible=1;marginBottom=0;fillColor=#F08E81;fontColor=#FFFFFF;" vertex="1" parent="1">
          <mxGeometry x="490" y="120" width="160" height="52" as="geometry"/>
        </mxCell>
        <mxCell id="T2nWJuuo7SkY1st2Bivo-12" value="+ methodImpl()" style="text;strokeColor=none;fillColor=#F08E81;align=left;verticalAlign=top;spacingLeft=4;spacingRight=4;overflow=hidden;rotatable=0;points=[[0,0.5],[1,0.5]];portConstraint=eastwest;fontColor=#FFFFFF;" vertex="1" parent="T2nWJuuo7SkY1st2Bivo-9">
          <mxGeometry y="26" width="160" height="26" as="geometry"/>
        </mxCell>
        <mxCell id="T2nWJuuo7SkY1st2Bivo-14" value="ConcreteImplementorA" style="swimlane;fontStyle=1;align=center;verticalAlign=top;childLayout=stackLayout;horizontal=1;startSize=26;horizontalStack=0;resizeParent=1;resizeParentMax=0;resizeLast=0;collapsible=1;marginBottom=0;fillColor=#F08E81;fontColor=#FFFFFF;" vertex="1" parent="1">
          <mxGeometry x="400" y="320" width="160" height="52" as="geometry"/>
        </mxCell>
        <mxCell id="T2nWJuuo7SkY1st2Bivo-17" value="+ methodImpl()" style="text;strokeColor=none;fillColor=#F08E81;align=left;verticalAlign=top;spacingLeft=4;spacingRight=4;overflow=hidden;rotatable=0;points=[[0,0.5],[1,0.5]];portConstraint=eastwest;fontColor=#FFFFFF;" vertex="1" parent="T2nWJuuo7SkY1st2Bivo-14">
          <mxGeometry y="26" width="160" height="26" as="geometry"/>
        </mxCell>
        <mxCell id="T2nWJuuo7SkY1st2Bivo-18" value="ConcreteImplementorB" style="swimlane;fontStyle=1;align=center;verticalAlign=top;childLayout=stackLayout;horizontal=1;startSize=26;horizontalStack=0;resizeParent=1;resizeParentMax=0;resizeLast=0;collapsible=1;marginBottom=0;fillColor=#F08E81;fontColor=#FFFFFF;" vertex="1" parent="1">
          <mxGeometry x="600" y="320" width="160" height="52" as="geometry"/>
        </mxCell>
        <mxCell id="T2nWJuuo7SkY1st2Bivo-21" value="+ methodImpl()" style="text;strokeColor=none;fillColor=#F08E81;align=left;verticalAlign=top;spacingLeft=4;spacingRight=4;overflow=hidden;rotatable=0;points=[[0,0.5],[1,0.5]];portConstraint=eastwest;fontColor=#FFFFFF;" vertex="1" parent="T2nWJuuo7SkY1st2Bivo-18">
          <mxGeometry y="26" width="160" height="26" as="geometry"/>
        </mxCell>
        <mxCell id="T2nWJuuo7SkY1st2Bivo-22" value="Extends" style="endArrow=block;endSize=16;endFill=0;html=1;fontColor=#000000;entryX=0.5;entryY=1;entryDx=0;entryDy=0;exitX=0.5;exitY=0;exitDx=0;exitDy=0;" edge="1" parent="1" source="T2nWJuuo7SkY1st2Bivo-5" target="T2nWJuuo7SkY1st2Bivo-1">
          <mxGeometry width="160" relative="1" as="geometry">
            <mxPoint x="160" y="560" as="sourcePoint"/>
            <mxPoint x="320" y="560" as="targetPoint"/>
          </mxGeometry>
        </mxCell>
        <mxCell id="T2nWJuuo7SkY1st2Bivo-23" value="Extends" style="endArrow=block;endSize=16;endFill=0;html=1;fontColor=#000000;entryX=0.5;entryY=1;entryDx=0;entryDy=0;exitX=0.5;exitY=0;exitDx=0;exitDy=0;edgeStyle=orthogonalEdgeStyle;" edge="1" parent="1" source="T2nWJuuo7SkY1st2Bivo-14" target="T2nWJuuo7SkY1st2Bivo-9">
          <mxGeometry width="160" relative="1" as="geometry">
            <mxPoint x="240" y="510" as="sourcePoint"/>
            <mxPoint x="400" y="510" as="targetPoint"/>
          </mxGeometry>
        </mxCell>
        <mxCell id="T2nWJuuo7SkY1st2Bivo-24" value="Extends" style="endArrow=block;endSize=16;endFill=0;html=1;fontColor=#000000;entryX=0.5;entryY=1;entryDx=0;entryDy=0;exitX=0.5;exitY=0;exitDx=0;exitDy=0;edgeStyle=orthogonalEdgeStyle;" edge="1" parent="1" source="T2nWJuuo7SkY1st2Bivo-18" target="T2nWJuuo7SkY1st2Bivo-9">
          <mxGeometry width="160" relative="1" as="geometry">
            <mxPoint x="430" y="520" as="sourcePoint"/>
            <mxPoint x="590" y="520" as="targetPoint"/>
          </mxGeometry>
        </mxCell>
        <mxCell id="T2nWJuuo7SkY1st2Bivo-25" value="" style="endArrow=diamondThin;endFill=0;endSize=24;html=1;fontColor=#000000;entryX=0.5;entryY=0;entryDx=0;entryDy=0;exitX=0.5;exitY=0;exitDx=0;exitDy=0;edgeStyle=orthogonalEdgeStyle;" edge="1" parent="1" source="T2nWJuuo7SkY1st2Bivo-9" target="T2nWJuuo7SkY1st2Bivo-1">
          <mxGeometry width="160" relative="1" as="geometry">
            <mxPoint x="130" y="530" as="sourcePoint"/>
            <mxPoint x="290" y="530" as="targetPoint"/>
            <Array as="points">
              <mxPoint x="570" y="60"/>
              <mxPoint x="200" y="60"/>
            </Array>
          </mxGeometry>
        </mxCell>
      </root>
    </mxGraphModel>
  </diagram>
</mxfile>
